<svg xmlns="http://www.w3.org/2000/svg" xmlns:xlink="http://www.w3.org/1999/xlink" width="500" zoomAndPan="magnify"
     viewBox="0 0 375 374.999991" height="500" preserveAspectRatio="xMidYMid meet" version="1.0">
    <defs>
        <g/>
    </defs>
    <style>
        path {
            fill: #000;
        }
        @media ( prefers-color-scheme: dark ) {
            path {
                fill: #FFF;
            }
        }
    </style>
    <g fill="#000000" fill-opacity="1">
        <g transform="translate(41.313316, 257.590771)">
            <g>
                <path d="M 111.78125 -68.796875 C 125.757812 -46.578125 139.644531 -26.507812 153.4375 -8.59375 L 152.90625 -4.5625 C 141.257812 -0.445312 129.34375 1.96875 117.15625 2.6875 L 113.40625 -0.265625 C 100.5 -22.484375 90.015625 -41.832031 81.953125 -58.3125 L 55.890625 -58.3125 L 55.890625 -54.8125 L 57.5 0 L 20.953125 0 L 22.84375 -51.59375 L 20.953125 -173.0625 L 87.328125 -173.328125 C 105.421875 -173.328125 119.394531 -168.890625 129.25 -160.015625 C 139.101562 -151.148438 144.03125 -138.476562 144.03125 -122 C 144.03125 -110.894531 141.207031 -100.726562 135.5625 -91.5 C 129.925781 -82.269531 122 -74.703125 111.78125 -68.796875 Z M 56.4375 -86.53125 L 83.03125 -85.453125 C 98.257812 -90.648438 105.875 -101.664062 105.875 -118.5 C 105.875 -127.632812 103.410156 -134.488281 98.484375 -139.0625 C 93.554688 -143.632812 85.988281 -146.097656 75.78125 -146.453125 L 57.5 -145.375 Z M 56.4375 -86.53125 "/>
            </g>
        </g>
    </g>
    <g fill="#000000" fill-opacity="1">
        <g transform="translate(199.855583, 257.590771)">
            <g>
                <path d="M 76.578125 -175.203125 C 91.273438 -175.203125 105.878906 -172.25 120.390625 -166.34375 L 114.46875 -134.890625 L 109.09375 -132.75 C 103.007812 -137.050781 96.695312 -140.453125 90.15625 -142.953125 C 83.613281 -145.460938 77.65625 -146.71875 72.28125 -146.71875 C 65.113281 -146.71875 59.378906 -144.789062 55.078125 -140.9375 C 50.785156 -137.09375 48.640625 -132.660156 48.640625 -127.640625 C 48.640625 -122.441406 51.007812 -118.050781 55.75 -114.46875 C 60.5 -110.882812 67.984375 -106.675781 78.203125 -101.84375 C 88.054688 -97.363281 96.070312 -93.195312 102.25 -89.34375 C 108.425781 -85.5 113.707031 -80.441406 118.09375 -74.171875 C 122.488281 -67.898438 124.6875 -60.195312 124.6875 -51.0625 C 124.6875 -41.207031 122 -32.203125 116.625 -24.046875 C 111.25 -15.898438 103.632812 -9.453125 93.78125 -4.703125 C 83.925781 0.046875 72.550781 2.421875 59.65625 2.421875 C 42.632812 2.421875 25.523438 -1.25 8.328125 -8.59375 L 13.4375 -42.453125 L 17.46875 -44.609375 C 24.632812 -38.335938 32.472656 -33.546875 40.984375 -30.234375 C 49.492188 -26.921875 57.0625 -25.265625 63.6875 -25.265625 C 71.570312 -25.265625 77.707031 -27.1875 82.09375 -31.03125 C 86.476562 -34.882812 88.671875 -39.5 88.671875 -44.875 C 88.671875 -50.601562 86.296875 -55.257812 81.546875 -58.84375 C 76.804688 -62.425781 69.148438 -66.726562 58.578125 -71.75 C 48.898438 -76.050781 41.015625 -80.082031 34.921875 -83.84375 C 28.835938 -87.601562 23.644531 -92.617188 19.34375 -98.890625 C 15.050781 -105.160156 12.90625 -112.773438 12.90625 -121.734375 C 12.90625 -131.765625 15.585938 -140.851562 20.953125 -149 C 26.328125 -157.15625 33.851562 -163.5625 43.53125 -168.21875 C 53.207031 -172.875 64.222656 -175.203125 76.578125 -175.203125 Z M 76.578125 -175.203125 "/>
            </g>
        </g>
    </g>
</svg>